<svg xmlns="http://www.w3.org/2000/svg" viewBox="0 0 240 240" role="img" aria-label="Tang Ben TB logo">
  <defs>
    <linearGradient id="plate" x1="24" y1="18" x2="218" y2="224" gradientUnits="userSpaceOnUse">
      <stop offset="0" stop-color="#20242d"/>
      <stop offset="0.44" stop-color="#0f1219"/>
      <stop offset="1" stop-color="#343a46"/>
    </linearGradient>
    <linearGradient id="edge" x1="30" y1="20" x2="210" y2="220" gradientUnits="userSpaceOnUse">
      <stop offset="0" stop-color="#f7fbff"/>
      <stop offset="0.28" stop-color="#6f7a8c"/>
      <stop offset="0.62" stop-color="#ffffff"/>
      <stop offset="1" stop-color="#303845"/>
    </linearGradient>
    <linearGradient id="letter" x1="46" y1="42" x2="198" y2="194" gradientUnits="userSpaceOnUse">
      <stop offset="0" stop-color="#f5f8ff"/>
      <stop offset="0.22" stop-color="#b5c0cf"/>
      <stop offset="0.5" stop-color="#2b3039"/>
      <stop offset="0.78" stop-color="#e7edf6"/>
      <stop offset="1" stop-color="#717b8b"/>
    </linearGradient>
    <filter id="shadow" x="-20%" y="-20%" width="140%" height="140%">
      <feDropShadow dx="0" dy="14" stdDeviation="16" flood-color="#10131f" flood-opacity="0.32"/>
      <feDropShadow dx="0" dy="0" stdDeviation="2" flood-color="#ffffff" flood-opacity="0.36"/>
    </filter>
    <filter id="innerGlow" x="-10%" y="-10%" width="120%" height="120%">
      <feGaussianBlur in="SourceAlpha" stdDeviation="1.2" result="blur"/>
      <feOffset dy="1"/>
      <feComposite in2="SourceAlpha" operator="arithmetic" k2="-1" k3="1" result="inner"/>
      <feColorMatrix in="inner" type="matrix" values="1 0 0 0 1  0 1 0 0 1  0 0 1 0 1  0 0 0 .45 0"/>
      <feComposite in="SourceGraphic"/>
    </filter>
  </defs>
  <rect x="18" y="18" width="204" height="204" rx="48" fill="url(#plate)" stroke="url(#edge)" stroke-width="3" filter="url(#shadow)"/>
  <path d="M42 70h83l13 30H98v84H68v-84H42V70z" fill="url(#letter)" stroke="#f8fbff" stroke-opacity="0.62" stroke-width="1.4" filter="url(#innerGlow)"/>
  <path d="M129 70h48c23 0 39 12 39 31 0 12-6 22-17 27 14 5 22 16 22 31 0 20-16 25-40 25h-52V70zm31 28v21h15c8 0 13-4 13-11s-5-10-13-10h-15zm0 48v22h18c9 0 14-4 14-11s-5-11-14-11h-18z" fill="url(#letter)" stroke="#f8fbff" stroke-opacity="0.62" stroke-width="1.4" filter="url(#innerGlow)"/>
  <path d="M116 54h34l-17 31-17-31z" fill="#0c0f15" stroke="url(#edge)" stroke-width="2" opacity="0.95"/>
  <path d="M48 42c54 12 100 10 144 0" fill="none" stroke="#ffffff" stroke-width="2" stroke-opacity="0.26"/>
</svg>
